<?xml version="1.0" standalone="no"?>
<!DOCTYPE svg PUBLIC "-//W3C//DTD SVG 20010904//EN"
 "http://www.w3.org/TR/2001/REC-SVG-20010904/DTD/svg10.dtd">
<svg version="1.0" xmlns="http://www.w3.org/2000/svg"
 width="512.000000pt" height="512.000000pt" viewBox="0 0 512.000000 512.000000"
 preserveAspectRatio="xMidYMid meet">
<metadata>
Created by potrace 1.14, written by Peter Selinger 2001-2017
</metadata>
<g transform="translate(0.000000,512.000000) scale(0.100000,-0.100000)"
fill="#000000" stroke="none">
<path d="M2523 4835 c372 -45 730 -173 1012 -360 365 -243 610 -519 795 -895
165 -337 240 -650 241 -1000 0 -629 -215 -1164 -650 -1613 -141 -145 -226
-218 -357 -305 -288 -192 -600 -314 -939 -366 l-90 -14 77 -1 c138 -2 350 32
543 86 265 75 576 237 792 414 l73 59 153 0 c153 0 154 0 193 28 102 75 327
346 419 505 l27 47 -157 0 c-86 0 -155 3 -153 8 2 4 24 48 49 97 58 113 115
253 150 370 l27 90 160 3 159 2 21 103 c25 120 39 224 48 365 l7 102 -162 0
-161 0 0 54 c0 113 -36 383 -66 494 l-6 22 156 0 c131 0 156 2 156 15 0 54
-120 362 -192 493 l-39 72 -158 0 -158 0 -58 88 c-96 144 -174 241 -288 359
l-109 112 153 3 154 3 -80 64 c-304 244 -678 411 -1065 476 -86 15 -527 35
-715 33 -69 0 -68 0 38 -13z"/>
<path d="M2275 4384 c815 -125 1440 -753 1559 -1565 31 -208 17 -498 -34 -699
-168 -665 -679 -1178 -1338 -1345 -54 -14 -139 -31 -188 -39 l-89 -14 81 -1
c466 -6 937 179 1283 505 483 454 682 1151 514 1799 -210 810 -957 1382 -1793
1374 l-85 -1 90 -14z"/>
<path d="M2249 3591 c-13 -10 -103 -141 -199 -289 -119 -185 -183 -274 -200
-282 -14 -5 -164 -48 -335 -95 -209 -57 -314 -90 -322 -101 -30 -42 -17 -63
193 -324 113 -140 209 -264 213 -275 4 -11 0 -166 -9 -345 -19 -352 -18 -366
32 -384 23 -8 75 9 345 112 l318 122 314 -120 c176 -68 325 -120 339 -118 14
2 33 14 44 28 18 25 18 35 3 315 -8 159 -15 312 -15 341 l0 52 212 263 c224
277 235 297 192 339 -12 11 -134 49 -337 103 -175 47 -325 91 -332 97 -8 6
-94 135 -192 285 -161 248 -198 295 -232 295 -5 0 -19 -9 -32 -19z"/>
</g>
</svg>
